<svg width="40" height="40" viewBox="0 0 40 40" fill="none" xmlns="http://www.w3.org/2000/svg">
<path d="M38.1562 38.4374H36.4427V13.5574C36.4427 12.3994 35.5005 11.4573 34.3425 11.4573H30.5125C29.3545 11.4573 28.4124 12.3995 28.4124 13.5574V38.4374H24.0614V24.83C24.0614 23.672 23.1193 22.7299 21.9613 22.7299H18.1313C16.9732 22.7299 16.0311 23.672 16.0311 24.83V38.4374H11.6802V31.3902C11.6802 30.2322 10.738 29.2901 9.58004 29.2901H5.74997C4.59192 29.2901 3.64981 30.2323 3.64981 31.3902V38.4374H1.84387C1.41239 38.4374 1.06262 38.7872 1.06262 39.2187C1.06262 39.6502 1.41239 39.9999 1.84387 39.9999H38.1562C38.5877 39.9999 38.9375 39.6502 38.9375 39.2187C38.9375 38.7872 38.5877 38.4374 38.1562 38.4374ZM10.1175 38.4374H5.21223V31.3902C5.21223 31.0938 5.4534 30.8526 5.74989 30.8526H9.57989C9.87637 30.8526 10.1175 31.0938 10.1175 31.3902V38.4374ZM22.4989 38.4374H17.5936V24.83C17.5936 24.5335 17.8347 24.2924 18.1312 24.2924H21.9612C22.2576 24.2924 22.4989 24.5335 22.4989 24.83V38.4374ZM34.8802 38.4374H29.9749V13.5574C29.9749 13.2609 30.2161 13.0198 30.5125 13.0198H34.3425C34.639 13.0198 34.8802 13.2609 34.8802 13.5574V38.4374Z" fill="white"/>
<path d="M36.4408 0.821562C36.4517 0.608359 36.3767 0.391563 36.2139 0.22875C36.0511 0.0659375 35.8343 -0.00914063 35.6211 0.001875C35.6085 0.00132813 35.5961 0 35.5833 0H30.8567C30.4252 0 30.0755 0.349766 30.0755 0.78125C30.0755 1.21273 30.4252 1.5625 30.8567 1.5625H33.7752L26.052 9.28578L23.1395 6.37328C22.9931 6.2268 22.7943 6.14445 22.5871 6.14445C22.3799 6.14445 22.1812 6.2268 22.0347 6.37328L7.99024 20.4178C7.68516 20.7229 7.68516 21.2176 7.99024 21.5227C8.14282 21.6752 8.34274 21.7514 8.54266 21.7514C8.74258 21.7514 8.94258 21.6752 9.09508 21.5226L22.5871 8.03047L25.4996 10.943C25.8047 11.248 26.2994 11.248 26.6045 10.943L34.8802 2.66742V5.30883C34.8802 5.74031 35.2299 6.09008 35.6614 6.09008C36.0929 6.09008 36.4427 5.74031 36.4427 5.30883V0.859375C36.4427 0.846641 36.4413 0.834219 36.4408 0.821562Z" fill="white"/>
<path d="M5.90936 24.4773C6.34084 24.4773 6.69061 24.1275 6.69061 23.696C6.69061 23.2646 6.34084 22.9148 5.90936 22.9148C5.47789 22.9148 5.12811 23.2646 5.12811 23.696C5.12811 24.1275 5.47789 24.4773 5.90936 24.4773Z" fill="white"/>
</svg>
