<svg width="40" height="40" viewBox="0 0 40 40" fill="none" xmlns="http://www.w3.org/2000/svg">
<g clip-path="url(#clip0)">
<path d="M30.2862 36.2512C30.0698 35.8782 29.5919 35.7512 29.2184 35.9676L29.1884 35.985C28.8152 36.2014 28.6883 36.6795 28.9047 37.0527C29.0496 37.3024 29.3117 37.442 29.5811 37.442C29.7141 37.442 29.8491 37.4078 29.9724 37.3363L30.0025 37.3189C30.3756 37.1024 30.5026 36.6244 30.2862 36.2512Z" fill="white"/>
<path d="M37.3202 10.0072C34.6497 5.38176 30.3379 2.07325 25.179 0.690903C20.0203 -0.69144 14.6318 0.0180128 10.0064 2.6884C5.38113 5.35879 2.07254 9.67067 0.690274 14.8295C-0.691992 19.9883 0.0173828 25.3768 2.68777 30.0022C5.08316 34.1511 8.89035 37.3043 13.408 38.8807C15.5495 39.6279 17.785 40.0008 20.0171 40.0008C22.4441 40.0008 24.8667 39.5597 27.1566 38.6797C27.5593 38.5249 27.7603 38.0729 27.6054 37.6702C27.4506 37.2675 26.9986 37.0663 26.596 37.2214C20.5007 39.5641 13.9021 38.4997 8.97215 34.7992L9.67207 31.1457L10.0093 31.0361C11.2838 30.6221 11.9838 29.2483 11.5699 27.9738L11.3224 27.2122C11.2651 27.0359 11.2654 26.8496 11.3232 26.6735C11.5403 26.0116 11.4627 25.2875 11.1103 24.6865C10.7579 24.0857 10.1637 23.6643 9.48004 23.5307L7.71676 23.1861L4.31457 20.5994C4.11074 20.4444 3.84395 20.3992 3.60035 20.4782L1.60848 21.1253C1.56621 20.4129 1.56559 19.7007 1.60574 18.9922C1.68434 19.0654 1.73551 19.1152 1.76699 19.1479C1.80598 19.2128 1.85426 19.2723 1.91082 19.3239C2.07348 19.472 2.22082 19.5392 2.5302 19.5392C2.81449 19.5391 3.23535 19.4825 3.93027 19.3798C4.58934 19.2824 5.24496 19.1726 5.25145 19.1715C5.51418 19.1275 5.73629 18.9525 5.84082 18.7076C5.94535 18.4626 5.91777 18.1813 5.7677 17.9611L4.8098 16.5561L6.18184 15.575C6.27324 15.5097 6.34949 15.4254 6.40535 15.3279L8.53215 11.615L9.38941 10.6964C10.2654 9.75747 10.5154 8.38379 10.0262 7.19661C9.73762 6.49637 9.23355 5.9134 8.60309 5.52051C9.2859 4.98372 10.0139 4.48809 10.7877 4.04145C13.6266 2.40239 16.7247 1.60809 19.7903 1.5777L18.3953 3.32762L13.2222 5.14114C13.0121 5.21473 12.8434 5.37458 12.7586 5.58036L11.3139 9.08254C11.2113 9.33137 11.2439 9.61528 11.4002 9.83434L13.5102 12.79C13.208 13.0657 12.9139 13.4672 12.5625 13.9658C12.4085 14.1845 12.263 14.391 12.1625 14.5068C12.075 14.6075 11.9875 14.706 11.9008 14.8035C11.447 15.314 10.9778 15.8421 10.6444 16.5474C9.91145 18.0989 10.0595 19.9022 11.0307 21.2536C11.9699 22.5602 13.5182 23.2244 15.1707 23.03C15.4399 22.9985 15.6909 22.9364 15.9338 22.8762C16.6036 22.7105 16.8157 22.694 17.0306 22.895C17.1351 22.9929 17.1447 23.0114 17.1426 23.3434C17.1411 23.5547 17.1395 23.8175 17.2123 24.1175C17.3289 24.5976 17.6304 24.9294 17.8726 25.196C17.993 25.3284 18.1175 25.4654 18.1559 25.5574C18.3996 26.1413 18.2935 26.4647 18.061 27.1732C18.0411 27.2339 18.0207 27.2957 18.0004 27.3592C17.6471 28.4525 18.1395 29.5371 18.5739 30.4938C18.715 30.8045 18.8482 31.0978 18.9354 31.357C19.6379 33.4413 20.1644 33.9186 20.587 34.1108C20.8083 34.2114 21.0374 34.2556 21.2688 34.2555C22.395 34.2554 23.5701 33.2098 24.11 32.5469C24.449 32.1307 24.5325 31.7139 24.5935 31.4094C24.6239 31.258 24.6478 31.1385 24.6934 31.0604C24.7632 30.9408 24.8455 30.8482 24.9496 30.7308C25.1591 30.495 25.4198 30.2015 25.5886 29.6696C25.7169 29.2655 25.8101 29.1664 26.1188 28.8377C26.1725 28.7806 26.2298 28.7195 26.2913 28.6526C27.3318 27.5204 27.0639 26.6554 26.78 25.7397C26.5412 24.9691 26.9589 24.4763 27.9689 23.5357C28.4068 23.128 28.8594 22.7064 29.2093 22.1999C29.3625 21.9782 29.8283 21.3037 29.54 20.6352C29.2575 19.9797 28.5393 19.8696 27.9622 19.7811C27.7343 19.7461 27.39 19.6933 27.2804 19.6217C26.797 19.3057 26.5013 18.6461 26.2153 18.0082C26.1583 17.8813 26.1021 17.756 26.0452 17.6343C25.9436 17.4173 25.8421 17.1547 25.7347 16.8768C25.4505 16.1411 25.1284 15.3073 24.58 14.7261C24.0871 14.2038 23.158 13.9522 22.3382 13.7302C22.0625 13.6556 21.8023 13.5851 21.6307 13.5218C21.4868 13.4686 21.3307 13.459 21.1818 13.494C20.7829 13.5875 20.5339 13.6906 20.3491 13.8387C20.3003 13.8779 20.1557 14.0064 20.071 14.2129C19.785 14.0757 19.3917 13.8136 19.1496 13.6522C19.1446 13.6489 19.1396 13.6455 19.1346 13.6422C19.2161 13.3157 19.1423 13.0538 19.065 12.8902C18.6286 11.9671 17.1799 12.0393 16.8941 12.0636C16.7318 12.0772 16.5264 12.0845 16.3091 12.0922C15.9679 12.1043 15.5907 12.1179 15.2175 12.1597L15.2367 12.1061C15.52 11.3168 16.2737 10.7865 17.1123 10.7865H17.5564C17.9878 10.7865 18.3376 10.4367 18.3376 10.0054C18.3376 9.57403 17.9878 9.22418 17.5564 9.22418H17.1123C15.8673 9.22418 14.7272 9.87942 14.0882 10.9107L12.923 9.27848L14.0694 6.49965L19.1243 4.72747C19.2629 4.67887 19.3851 4.59215 19.4768 4.47723L21.7239 1.65856C27.4656 2.20473 32.8703 5.42395 35.9673 10.7882C36.7922 12.217 37.4025 13.7212 37.8082 15.2597L37.477 15.555C37.0447 15.9407 36.7914 16.494 36.7818 17.0729C36.7817 17.0793 36.7815 17.0855 36.7813 17.0918L36.2418 15.608C36.1614 15.3866 36.0429 15.1836 35.89 15.0046L34.9275 13.8778C34.5544 13.441 34.0111 13.1906 33.4368 13.1906H32.2588C31.8406 13.1906 31.4584 13.4197 31.2611 13.7882C31.0639 14.1568 31.0854 14.6019 31.3174 14.9497L31.4366 15.1287C30.6754 15.7833 29.7949 16.3072 28.8574 16.6604L27.2425 13.5672V12.8772C27.2425 12.6637 27.1552 12.4594 27.0007 12.3122L25.5466 10.924C25.4664 10.8474 25.3707 10.7888 25.2661 10.752L23.9571 10.292C23.5499 10.1487 23.1041 10.363 22.9611 10.77C22.8181 11.1771 23.0321 11.6229 23.4391 11.766L24.5894 12.1703L25.6802 13.2115V13.759C25.6802 13.8848 25.7107 14.0089 25.7689 14.1205L27.7906 17.9929C27.9724 18.3414 28.385 18.5006 28.7533 18.3643L29.342 18.1473C30.7096 17.6429 31.9771 16.8316 33.0078 15.8011C33.2711 15.5378 33.312 15.1254 33.1054 14.8154L33.0638 14.753H33.4368C33.5535 14.753 33.6639 14.8039 33.7397 14.8926L34.7021 16.0194C34.7331 16.0557 34.7571 16.0968 34.7735 16.1419L35.8356 19.0625C35.9268 19.3134 36.14 19.5003 36.4004 19.5581C36.4567 19.5705 36.5133 19.5766 36.5696 19.5766C36.7746 19.5766 36.974 19.4959 37.122 19.3478L37.6275 18.8422C37.9477 18.522 38.1681 18.1168 38.2734 17.6677C39.0553 23.9337 36.5983 30.4156 31.405 34.4917C31.0656 34.758 31.0064 35.249 31.2729 35.5885C31.5392 35.9279 32.0301 35.9872 32.3696 35.7207C36.119 32.7779 38.6948 28.5689 39.6225 23.869C40.5589 19.1238 39.7414 14.2007 37.3202 10.0072ZM3.69426 22.0905L6.91559 24.5398C7.01082 24.6122 7.12129 24.6618 7.23863 24.6847L9.18019 25.064C9.42801 25.1125 9.63473 25.259 9.76246 25.4768C9.8902 25.6946 9.91707 25.9465 9.83848 26.1864C9.67676 26.6797 9.67598 27.2013 9.83637 27.6948L10.0839 28.4564C10.2318 28.9115 9.9816 29.4022 9.52652 29.5501L8.7502 29.8024C8.47934 29.8904 8.27793 30.1188 8.22441 30.3983L7.59957 33.66C6.2259 32.4027 5.0198 30.9168 4.04082 29.2211C2.84645 27.1525 2.1002 24.9462 1.77129 22.7153L3.69426 22.0905ZM8.24715 9.63043L7.32816 10.615C7.28715 10.659 7.25129 10.7076 7.22137 10.7598L5.13449 14.4032L3.27973 15.7295C2.93426 15.9765 2.84941 16.4541 3.08863 16.805L3.7823 17.8225C3.38246 17.8821 3.02363 17.9311 2.78504 17.9572C2.73918 17.9132 2.69121 17.8686 2.6416 17.8225C2.4559 17.65 2.19785 17.4196 1.81316 17.0829C2.44762 13.1561 4.33981 9.45676 7.31574 6.63293C7.88559 6.81239 8.35324 7.23747 8.58168 7.79192C8.83871 8.41551 8.7073 9.13723 8.24715 9.63043ZM14.6167 13.8994C14.9651 13.7033 15.7739 13.6747 16.3643 13.6537C16.601 13.6454 16.8246 13.6374 17.0243 13.6207C17.1296 13.6118 17.2467 13.6135 17.3571 13.6221C17.3078 13.7486 17.2918 13.8875 17.3132 14.0254C17.3507 14.2678 17.5002 14.4783 17.7164 14.594C17.863 14.6725 18.067 14.8085 18.2829 14.9525C18.8935 15.3595 19.5856 15.8208 20.2357 15.8622C20.827 15.9006 21.156 15.5636 21.2969 15.4201C21.3082 15.4087 21.3188 15.3973 21.33 15.3869C21.4094 15.3222 21.4838 15.2355 21.5391 15.1309C21.664 15.1666 21.7953 15.2022 21.9298 15.2386C22.3924 15.3639 23.2534 15.597 23.4436 15.7986C23.7815 16.1568 24.0449 16.8386 24.2773 17.44C24.3947 17.744 24.5057 18.0309 24.6301 18.2969C24.6836 18.4111 24.7361 18.5286 24.7896 18.6477C25.15 19.4518 25.5586 20.3632 26.4254 20.9297C26.8185 21.1867 27.3003 21.2605 27.7254 21.3257C27.7768 21.3336 27.8357 21.3427 27.8956 21.3525C27.6432 21.7046 27.2839 22.0391 26.9043 22.3926C25.9372 23.2932 24.7336 24.4142 25.2879 26.2024C25.5496 27.0468 25.5618 27.138 25.1411 27.5957C25.0837 27.6581 25.0303 27.715 24.9802 27.7682C24.6199 28.1518 24.3353 28.4548 24.0997 29.197C24.0312 29.4125 23.9425 29.5124 23.7815 29.6936C23.6528 29.8386 23.4924 30.0193 23.3445 30.2724C23.1673 30.5757 23.1087 30.8677 23.0618 31.1023C23.0154 31.3332 22.9892 31.449 22.8986 31.5603C22.6922 31.8136 22.3074 32.1814 21.9123 32.4324C21.5451 32.6655 21.3307 32.6974 21.2577 32.693C21.1743 32.6036 20.8724 32.2123 20.4161 30.8582C20.3036 30.5241 20.1475 30.1804 19.9966 29.8479C19.6639 29.1151 19.3199 28.3573 19.4872 27.8394C19.507 27.7783 19.5265 27.7186 19.5457 27.6603C19.8131 26.8454 20.0654 26.076 19.5979 24.9557C19.4556 24.6145 19.2289 24.3652 19.0292 24.1452C18.8999 24.0029 18.7534 23.8417 18.7308 23.7489C18.7033 23.6357 18.7042 23.505 18.7052 23.3536C18.7079 22.9454 18.7119 22.3286 18.0987 21.7544C17.2342 20.9452 16.2261 21.1945 15.5589 21.3595C15.3539 21.4101 15.1604 21.4581 14.9888 21.4782C13.8913 21.6068 12.9114 21.1928 12.2997 20.3415C11.6598 19.4511 11.5669 18.2529 12.0574 17.2147C12.2948 16.7122 12.6535 16.3086 13.0688 15.8414C13.1595 15.7393 13.2511 15.6363 13.3426 15.5308C13.495 15.3552 13.6626 15.1174 13.8399 14.8656C14.0515 14.5652 14.4456 14.0058 14.6167 13.8994Z" fill="white"/>
<path d="M32.033 26.8968L31.6571 25.4801C31.575 25.1707 31.3125 24.9427 30.9948 24.9048C30.6767 24.8676 30.3681 25.0266 30.2154 25.308C30.1298 25.4658 30.0527 25.633 29.9781 25.7946C29.8528 26.0666 29.7231 26.3478 29.5881 26.503C29.5124 26.5902 29.3177 26.6842 29.1296 26.775C28.6798 26.992 28.0638 27.2893 27.8285 28.0394C27.6824 28.5048 27.7369 28.8729 27.7767 29.1416C27.8112 29.3747 27.8192 29.4555 27.7567 29.602L27.7489 29.6202C27.5003 30.2037 27.0376 31.2901 27.6864 32.2136C28.1492 32.8726 28.636 33.0421 29.0142 33.0421C29.088 33.0423 29.1578 33.0358 29.2224 33.0253C30.0193 32.8951 30.6184 32.0662 31.1079 30.4165L32.0268 27.3195C32.0677 27.1818 32.0699 27.0355 32.033 26.8968ZM29.6102 29.972C29.3606 30.8131 29.1399 31.2058 29.0124 31.3798C28.9978 31.3611 28.9818 31.3398 28.9648 31.3155C28.8155 31.1029 29.0386 30.5791 29.1863 30.2325L29.1942 30.2142C29.4323 29.6553 29.3686 29.2261 29.3223 28.9126C29.2925 28.7119 29.2819 28.6257 29.3192 28.5072C29.3498 28.4098 29.5328 28.3152 29.8086 28.1821C29.9309 28.123 30.0655 28.0581 30.2013 27.9795L29.6102 29.972Z" fill="white"/>
<path d="M21.096 9.2862L21.0432 9.26776C20.6364 9.12526 20.1903 9.33924 20.0475 9.74635C19.9047 10.1535 20.119 10.5992 20.5261 10.7421L20.5788 10.7605C20.6643 10.7905 20.7515 10.8047 20.8374 10.8047C21.1599 10.8047 21.4617 10.6034 21.5746 10.2819C21.7174 9.87471 21.5031 9.42893 21.096 9.2862Z" fill="white"/>
</g>
<defs>
<clipPath id="clip0">
<rect width="40" height="40" fill="white"/>
</clipPath>
</defs>
</svg>
